# xmcd
#
# Track frame offsets:
#	150
#	24082
#	54479
#	75011
#	89558
#
# Disc length: 1526 seconds
#
# Revision: 0
# Processed by: cddbd v1.4PL0 Copyright (c) Steve Scherf et al.
# Submitted via: audiograbber 1.81.01
#
DISCID=2705f405
DTITLE=Jam Sandwich - Demo
DYEAR=2002
DGENRE=Blues pop
TTITLE0=Cryin'
TTITLE1=Walkin' Away
TTITLE2=Dancing Alone
TTITLE3=My Next to Be
TTITLE4=Cryin' (Remix)
EXTD=April Williams and Sean
EXTT0=
EXTT1=
EXTT2=
EXTT3=
EXTT4=
PLAYORDER=
